<svg width="24" height="13" viewBox="0 0 24 13" fill="none" xmlns="http://www.w3.org/2000/svg">
<g clip-path="url(#clip0_3626_361)">
<path d="M23.7374 7.32487C23.7053 7.31154 23.6715 7.303 23.637 7.29951C23.5667 7.29587 23.4968 7.31193 23.4352 7.34583C23.3806 7.37814 23.3363 7.42515 23.3072 7.48149C23.2234 7.60832 23.1605 7.7473 23.0866 7.87855C22.9749 8.0588 22.8475 8.22893 22.7061 8.38701C22.5749 8.5414 22.4249 8.67817 22.2848 8.82816C22.2732 8.84323 22.2571 8.85417 22.2388 8.85934C22.2205 8.86448 22.2011 8.86362 22.1833 8.85684C22.1699 8.84659 22.1597 8.83276 22.1539 8.81695C22.148 8.80114 22.1468 8.784 22.1502 8.76749C22.191 8.3925 22.2219 8.01531 22.2727 7.64031C22.2936 7.46937 22.3146 7.30943 22.3366 7.13408C22.3642 6.89144 22.3929 6.64988 22.4216 6.40726L22.6565 4.59736C22.6785 4.46942 22.6852 4.22677 22.5219 4.08448C22.4565 4.025 22.3746 3.98657 22.287 3.9742C22.1997 3.96806 22.1126 3.98803 22.0367 4.03155C21.816 4.19258 21.7389 4.53338 21.6782 4.78706C21.5359 5.38374 21.4984 6.01571 21.2116 6.56937C21.1547 6.67994 21.0879 6.78512 21.012 6.88372C20.9617 6.95371 20.8993 7.01421 20.8278 7.06238C20.7558 7.11036 20.6685 7.12963 20.583 7.11642C20.5301 7.10249 20.4813 7.07636 20.4403 7.04019C20.3993 7.00399 20.3673 6.95871 20.347 6.90796C20.3073 6.8064 20.2871 6.69827 20.2874 6.58923C20.2705 6.0525 20.3504 5.5171 20.5234 5.00875C20.5698 4.88689 20.6031 4.76044 20.6227 4.63153C20.6514 4.47382 20.6514 4.25324 20.5124 4.11758C20.4474 4.05506 20.3673 4.01042 20.28 3.98801C20.1926 3.96559 20.1009 3.96616 20.0139 3.98964C19.9276 4.02445 19.8499 4.07742 19.7859 4.145C19.7219 4.21257 19.6733 4.29313 19.6433 4.38119C19.4459 4.83998 19.3929 5.32307 19.3301 5.81497C19.2963 6.13828 19.1968 6.4513 19.0378 6.73482C18.9335 6.91479 18.8092 7.0824 18.6672 7.23444C18.5976 7.31201 18.5211 7.38324 18.4389 7.4473C18.3939 7.48679 18.3414 7.51687 18.2846 7.5358C18.2278 7.55475 18.1678 7.56215 18.108 7.5576C18.0486 7.5479 17.9924 7.52412 17.944 7.48822C17.8957 7.45234 17.8566 7.40541 17.8301 7.35135C17.7798 7.25366 17.7484 7.14742 17.7374 7.03811C17.7065 6.83784 17.6947 6.63511 17.7022 6.43262C17.6977 6.21377 17.7121 5.99495 17.7452 5.77858C17.8224 5.39146 18.4191 3.8617 18.5492 3.46243C18.6882 3.05698 18.8049 2.64425 18.8988 2.22606C18.9829 1.85236 19.0199 1.46962 19.0091 1.08674C18.9992 0.817626 18.9407 0.520939 18.7246 0.361015C18.6367 0.302653 18.5356 0.267405 18.4305 0.258535C18.3254 0.249667 18.2198 0.267464 18.1235 0.310281C17.9308 0.398668 17.7721 0.547319 17.6713 0.733804C17.572 0.919092 17.4978 1.11678 17.4507 1.32166C17.3401 1.74401 17.2514 2.17178 17.1849 2.60326C17.1176 3.02236 17.0481 3.43927 16.9808 3.85838C16.9235 4.21133 16.7779 5.45762 16.7216 5.72123C16.656 5.99262 16.5564 6.25462 16.425 6.501C16.2915 6.76349 16.1669 7.03039 16.0191 7.28627C15.9768 7.37069 15.9179 7.44571 15.8459 7.50685C15.8085 7.53701 15.7637 7.55653 15.7161 7.56331C15.6686 7.57012 15.6201 7.56396 15.5757 7.54547C15.5275 7.5145 15.4873 7.47258 15.4584 7.42312C15.4294 7.37369 15.4126 7.31809 15.4092 7.26091C15.3309 6.83077 15.3992 6.39291 15.4809 5.96939C15.5625 5.54585 15.922 3.59149 15.9981 3.1415C16.0952 2.61761 16.2375 2.10033 16.2805 1.56651C16.3114 1.18159 16.3709 0.699613 16.0831 0.391898C16.0266 0.334434 15.9567 0.291944 15.8796 0.268261C15.8026 0.244576 15.7209 0.240445 15.6419 0.256239C15.4822 0.302769 15.3454 0.406917 15.2581 0.548512C15.1497 0.689186 15.0631 0.845335 15.0011 1.01174C14.8941 1.30664 14.8086 1.6089 14.7452 1.91614L14.7165 2.04518C14.6338 2.42473 14.5708 2.80832 14.5279 3.19442C14.5051 3.40179 14.4857 3.60987 14.4695 3.81869C14.4618 3.92016 14.4507 4.02272 14.4474 4.12419C14.4548 4.20554 14.4446 4.28754 14.4176 4.36463C14.406 4.39091 14.3887 4.41427 14.3669 4.43302C14.2745 4.48936 14.1646 4.50977 14.0581 4.49037C13.5066 4.47382 13.018 4.78594 12.7136 5.23705C12.55 5.49439 12.421 5.77212 12.3298 6.06314C12.3144 6.11277 12.2934 6.16241 12.2725 6.21313C12.2109 6.38684 12.1372 6.55601 12.0519 6.71938C11.9606 6.87986 11.8558 7.03225 11.7386 7.17488C11.625 7.32336 11.496 7.4594 11.3537 7.58076C11.2106 7.70895 11.0365 7.79755 10.8486 7.83773C10.7489 7.8504 10.6477 7.83889 10.5534 7.80413C10.4592 7.76939 10.3746 7.71243 10.307 7.63811C10.1833 7.48644 10.1104 7.29968 10.0986 7.10429C10.0888 7.0483 10.0998 6.99065 10.1295 6.94216C10.1588 6.9146 10.1936 6.89347 10.2316 6.88018C10.2696 6.86687 10.3099 6.8617 10.3501 6.86496C10.649 6.84111 10.9354 6.73405 11.1767 6.55588C11.418 6.37774 11.6046 6.13561 11.7155 5.85689C11.8502 5.53012 11.8922 5.17252 11.8368 4.82345C11.8108 4.65258 11.7476 4.48953 11.6515 4.34588C11.552 4.20539 11.4163 4.0945 11.2589 4.02492C11.0993 3.95926 10.9282 3.92613 10.7557 3.92744C10.5832 3.92877 10.4126 3.96455 10.2541 4.03264C9.68499 4.26096 9.3144 4.7661 9.12913 5.57673L9.10817 5.66167C8.99787 6.14697 8.87985 6.65431 8.53024 7.00171C8.48581 7.05305 8.42954 7.09281 8.36635 7.11761C8.30313 7.1424 8.23485 7.15145 8.16737 7.14401C8.14441 7.13973 8.12264 7.13052 8.10361 7.11699C8.08456 7.10348 8.06868 7.08596 8.05707 7.0657C7.96444 6.90908 8.0637 6.53849 8.20709 6.07306C8.24771 5.9543 8.28087 5.83311 8.30635 5.71019C8.31627 5.53915 8.27807 5.36872 8.19605 5.21829C8.10987 5.07773 7.98346 4.96629 7.83318 4.89845C7.68441 4.84753 7.5266 4.82838 7.36996 4.84221H7.32032C7.26985 4.84434 7.21932 4.83914 7.17033 4.82674C7.13767 4.81935 7.10744 4.80368 7.08255 4.78129C7.05763 4.7589 7.03888 4.7305 7.02804 4.69883C7.01448 4.62267 7.01941 4.54436 7.04239 4.47051C7.049 4.44955 7.05672 4.42087 7.06335 4.39992C7.08245 4.32354 7.07696 4.24307 7.04766 4.16999C7.01834 4.09692 6.96671 4.03494 6.9001 3.99295C6.83122 3.95077 6.7533 3.92558 6.67274 3.91945C6.59221 3.91331 6.51137 3.9264 6.43687 3.95765C6.28224 4.03007 6.15501 4.15034 6.07403 4.30065C5.98981 4.44482 5.9546 4.61238 5.97365 4.77822C6.02101 4.93004 6.03568 5.09018 6.01668 5.24808C5.95932 5.52601 5.79607 5.75322 5.63174 5.98152C5.59534 6.03115 5.56006 6.09182 5.52146 6.13813C5.31976 6.43628 5.08563 6.71112 4.82331 6.9576C4.4788 7.28021 4.05667 7.50819 3.59795 7.61935C2.85791 7.7826 2.10239 7.5598 1.70313 6.89032C1.49146 6.50415 1.37216 6.07415 1.35461 5.63408C1.29784 4.78149 1.44688 3.92773 1.78916 3.14479C2.11342 2.3915 2.59539 1.6371 3.48876 1.54335C3.83619 1.50695 4.23546 1.62717 4.39096 1.9404C4.50126 2.16871 4.46487 2.44334 4.39096 2.6882C4.31706 2.93305 4.2167 3.17458 4.2123 3.42935C4.20787 3.68412 4.33581 3.96648 4.57955 4.04036C4.82331 4.11427 5.07368 3.96096 5.21043 3.75471C5.3472 3.54846 5.39463 3.29809 5.45419 3.05767C5.59358 2.48981 5.81463 1.94517 6.11043 1.44078C6.24718 1.20806 6.406 0.95549 6.35968 0.689686C6.34181 0.594047 6.29832 0.505052 6.23384 0.432208C6.16934 0.359362 6.08628 0.305402 5.99352 0.276089C5.89987 0.249487 5.8008 0.248774 5.70678 0.274021C5.61278 0.299271 5.5274 0.349537 5.4597 0.419471C5.32624 0.561746 5.26006 0.784538 5.07588 0.847406C4.8917 0.910271 4.73065 0.794465 4.57294 0.709539C3.98289 0.391898 3.24943 0.402926 2.62738 0.658805C2.01013 0.932413 1.48669 1.38107 1.12189 1.94923C0.568716 2.76052 0.23232 3.69986 0.144704 4.67787C0.11713 5.01996 0.11713 5.3637 0.144704 5.70579C0.168408 6.10968 0.239101 6.50942 0.355359 6.89695C0.4736 7.28588 0.656688 7.65206 0.896895 7.98002C1.13755 8.30506 1.45982 8.56075 1.83107 8.72118C2.20653 8.87149 2.60925 8.94173 3.01341 8.92743C3.41807 8.9106 3.81538 8.81389 4.18251 8.64287C4.55245 8.4697 4.89536 8.24382 5.2005 7.9723C5.51275 7.71261 5.79269 7.41639 6.03432 7.08994C6.1995 6.86919 6.34701 6.63577 6.4755 6.39182C6.53946 6.26828 6.59901 6.14145 6.65305 6.01239C6.6671 5.95766 6.69202 5.90632 6.72631 5.86142C6.7606 5.81651 6.80358 5.77898 6.85269 5.75102C6.88355 5.73372 6.91881 5.72585 6.95411 5.7284C6.98939 5.73095 7.02314 5.74379 7.0512 5.76534C7.1115 5.79246 7.15977 5.84071 7.18686 5.901C7.22145 6.00898 7.21913 6.12539 7.18026 6.23188V6.24621C7.15158 6.34547 7.1229 6.44474 7.08762 6.54512C6.95196 6.96532 6.85269 7.35026 6.931 7.72745C6.96641 7.92002 7.05244 8.0997 7.18026 8.24803C7.31099 8.39084 7.48713 8.48397 7.67876 8.51163C7.92685 8.53873 8.17747 8.49313 8.4001 8.38038C8.54348 8.31298 8.67647 8.22532 8.79494 8.12009C8.85627 8.06479 8.91306 8.00469 8.96479 7.94031C9.01222 7.88076 9.05634 7.79253 9.14566 7.79804C9.1677 7.80015 9.18898 7.80707 9.20806 7.81831C9.22711 7.82957 9.24347 7.84486 9.25596 7.86312C9.27917 7.89758 9.29842 7.9346 9.31331 7.97339C9.43094 8.2245 9.61819 8.43657 9.85279 8.58438C10.0874 8.73219 10.3595 8.80953 10.6368 8.80721H10.7085C10.9822 8.79647 11.2495 8.72088 11.4883 8.58663C11.7437 8.43521 11.9787 8.25174 12.1875 8.04067C12.2051 8.02117 12.2276 8.00672 12.2526 7.99878C12.2712 7.99687 12.2899 7.99972 12.3071 8.00707C12.3242 8.01439 12.3393 8.02594 12.3508 8.04067C12.3722 8.07164 12.3893 8.10542 12.4015 8.14105C12.4727 8.30885 12.5846 8.45626 12.7271 8.5699C12.8696 8.68352 13.0382 8.75978 13.2177 8.79177C13.3978 8.81973 13.5821 8.80218 13.7537 8.74075C13.9254 8.67929 14.0789 8.57589 14.2004 8.43993C14.2483 8.3761 14.3026 8.31733 14.3625 8.26458C14.3925 8.23907 14.4284 8.22146 14.4669 8.21337C14.5054 8.20528 14.5454 8.20696 14.5831 8.21824C14.6857 8.26015 14.7176 8.38478 14.7629 8.48516C14.8179 8.59865 14.9043 8.69403 15.0118 8.7601C15.1192 8.82613 15.2433 8.86008 15.3695 8.85795C15.6562 8.84434 15.9272 8.72301 16.1283 8.51824C16.3152 8.33 16.4878 8.12796 16.6444 7.91384C16.6714 7.87472 16.7059 7.84134 16.7459 7.81568C16.7663 7.80354 16.7895 7.79713 16.8132 7.79713C16.8369 7.79713 16.8601 7.80354 16.8805 7.81568C16.9076 7.84127 16.9274 7.87363 16.9378 7.90943C17.0233 8.10349 17.1644 8.2679 17.3432 8.38194C17.522 8.49597 17.7306 8.55451 17.9426 8.55023C18.3583 8.5248 18.7489 8.34272 19.0356 8.04067C19.1154 7.93722 19.227 7.86282 19.3532 7.82892C19.4911 7.81348 19.5573 7.9392 19.6058 8.0495C19.6548 8.18145 19.741 8.29635 19.854 8.38038C19.9313 8.43627 20.0201 8.47425 20.114 8.49162C20.2078 8.50896 20.3043 8.50525 20.3966 8.48073C20.5825 8.42823 20.747 8.3182 20.8664 8.16641C20.937 8.07929 20.9767 7.96678 21.055 7.88627C21.1333 7.80576 21.1808 7.91275 21.1885 7.98222C21.1999 8.09913 21.2025 8.21676 21.1962 8.33406C21.1841 8.56676 21.1444 8.79728 21.1146 9.0289C21.1126 9.09624 21.0908 9.16149 21.0517 9.21639C21.0176 9.24653 20.9768 9.26801 20.9326 9.27894C20.8884 9.2899 20.8423 9.29 20.7981 9.27926C20.6878 9.26382 20.5896 9.25499 20.4815 9.24947L20.3459 9.23515C20.1473 9.22191 19.9466 9.19984 19.7403 9.19323H19.5551C19.2088 9.18457 18.8637 9.2376 18.536 9.34985C18.3071 9.43638 18.0997 9.57164 17.9283 9.7463C17.7569 9.92093 17.6256 10.1308 17.5433 10.3612C17.4733 10.565 17.4562 10.7832 17.4937 10.9954C17.5338 11.2089 17.6297 11.4079 17.7716 11.5722C17.9152 11.7347 18.0901 11.8665 18.2859 11.9596C18.4817 12.0526 18.6943 12.1051 18.911 12.1138C19.3526 12.1299 19.792 12.0423 20.1937 11.8579C20.6027 11.6855 20.9669 11.4219 21.2585 11.0872C21.55 10.7525 21.7611 10.3555 21.8756 9.92667C21.8759 9.91754 21.8787 9.90863 21.8837 9.90104C21.8888 9.89342 21.8959 9.8874 21.9043 9.88367C22.1926 9.78559 22.4641 9.64387 22.7094 9.46344C22.9526 9.27894 23.1703 9.06309 23.3569 8.82156C23.4468 8.70445 23.5304 8.58257 23.6072 8.45648C23.6811 8.33406 23.7407 8.2028 23.8112 8.07709C23.8711 7.98096 23.9154 7.87601 23.9425 7.76605C23.9563 7.71011 23.9586 7.65194 23.9493 7.59508C23.94 7.53822 23.9193 7.48382 23.8885 7.43517C23.8497 7.38465 23.7973 7.34635 23.7374 7.32487ZM10.1714 5.71019C10.1879 5.63851 10.21 5.56792 10.231 5.50285C10.2889 5.32367 10.3753 5.15497 10.4868 5.00323C10.5242 4.95053 10.5701 4.90434 10.6225 4.86646C10.6757 4.82892 10.741 4.81279 10.8056 4.82125C10.8583 4.83565 10.9055 4.86552 10.9411 4.90701C10.9766 4.94848 10.999 4.99967 11.0052 5.05395C11.0197 5.24442 10.9815 5.43518 10.8949 5.60543C10.8261 5.76571 10.7198 5.90719 10.585 6.01791C10.5302 6.06131 10.4706 6.0983 10.4074 6.12821C10.3722 6.14266 10.335 6.15194 10.2971 6.15578H10.2828C10.255 6.15815 10.2272 6.15102 10.204 6.13561C10.1808 6.1202 10.1635 6.09738 10.1548 6.07086C10.1392 5.94905 10.1478 5.82534 10.1802 5.7069M14.4574 5.52269C14.4518 5.59769 14.4331 5.67271 14.4276 5.7433C14.422 5.83925 14.4176 5.9352 14.4154 6.03115C14.4154 6.19328 14.4154 6.35651 14.4287 6.51865C14.4419 6.68078 14.4739 6.81422 14.4154 6.9598C14.3537 7.14453 14.2431 7.30914 14.0956 7.43629C14.0216 7.49851 13.9401 7.55112 13.8529 7.59288C13.7776 7.63059 13.6946 7.65021 13.6103 7.65023C13.5893 7.65023 13.575 7.64363 13.5541 7.64363C13.4985 7.63902 13.445 7.62017 13.3988 7.58887C13.3526 7.55757 13.3153 7.51489 13.2905 7.46496C13.2417 7.38131 13.2078 7.28991 13.1901 7.19473C13.1141 6.82441 13.1389 6.44048 13.2618 6.08298C13.3395 5.8586 13.4695 5.65593 13.6412 5.49182C13.7927 5.34782 13.9915 5.26392 14.2004 5.2558C14.2364 5.25253 14.2727 5.25652 14.3072 5.2675C14.3417 5.27849 14.3736 5.29625 14.4011 5.31976C14.4412 5.36397 14.4622 5.42224 14.4596 5.48189C14.4596 5.49402 14.4596 5.50726 14.4596 5.52049M20.8367 10.1296C20.8172 10.1792 20.7913 10.2259 20.7595 10.2686C20.7123 10.3509 20.6572 10.4285 20.5951 10.5002C20.4995 10.609 20.3947 10.7093 20.2819 10.8002C20.05 10.9742 19.7884 11.1046 19.5098 11.1851C19.3518 11.2276 19.1893 11.2513 19.0257 11.2557H18.9904C18.804 11.2577 18.6227 11.195 18.4775 11.0781C18.3991 11.0143 18.344 10.9262 18.3209 10.8278C18.3071 10.7254 18.3244 10.6213 18.3705 10.5289C18.4473 10.36 18.5813 10.2236 18.7488 10.144C19.0675 10.0079 19.4153 9.95408 19.7602 9.98734L20.1595 10.0094C20.2698 10.0149 20.3723 10.0237 20.4793 10.0315C20.5367 10.0315 20.5896 10.0315 20.6503 10.0425C20.6948 10.0416 20.7394 10.0434 20.7837 10.048C20.8345 10.0623 20.8444 10.0932 20.8345 10.1296" fill="#BABABA"/>
<path d="M7.33466 11.0383V9.7876H7.5034V10.2641C7.53715 10.2168 7.58166 10.1783 7.63325 10.1516C7.68483 10.125 7.74201 10.111 7.80008 10.1108C8.0361 10.1108 8.20264 10.2961 8.20264 10.5861C8.20264 10.8762 8.0339 11.0604 7.80008 11.0604C7.74231 11.0599 7.68543 11.046 7.63394 11.0198C7.58245 10.9936 7.53777 10.9557 7.5034 10.9093V11.0383H7.33466ZM7.5034 10.7791C7.53163 10.8196 7.56926 10.8527 7.61303 10.8756C7.65683 10.8984 7.70547 10.9104 7.75485 10.9104C7.92362 10.9104 8.02838 10.7758 8.02838 10.5861C8.02838 10.3964 7.92362 10.2608 7.75485 10.2608C7.70527 10.2616 7.6566 10.2742 7.61286 10.2976C7.56914 10.321 7.5316 10.3545 7.5034 10.3953V10.7791Z" fill="#BABABA"/>
<path d="M8.44638 11.2413C8.47036 11.2504 8.49574 11.2552 8.52137 11.2556C8.55013 11.2586 8.579 11.2514 8.60297 11.2352C8.62695 11.2191 8.64452 11.1951 8.65263 11.1674L8.70556 11.0471L8.33276 10.1328H8.51697L8.7993 10.8431L9.08278 10.1328H9.26476L8.81806 11.2104C8.79841 11.2702 8.75952 11.3218 8.70744 11.3571C8.65535 11.3924 8.593 11.4095 8.53021 11.4056C8.49304 11.4055 8.45603 11.401 8.41991 11.3924L8.44638 11.2413Z" fill="#BABABA"/>
<path d="M9.97833 11.0383V9.78758H10.5022C10.5544 9.78382 10.6068 9.79112 10.6559 9.80894C10.7051 9.82675 10.75 9.85473 10.7877 9.89103C10.8253 9.92733 10.8549 9.97117 10.8745 10.0197C10.8941 10.0682 10.9033 10.1202 10.9015 10.1725C10.903 10.2246 10.8935 10.2765 10.8738 10.3248C10.8541 10.3731 10.8244 10.4167 10.7869 10.4528C10.7493 10.489 10.7045 10.5169 10.6555 10.5347C10.6065 10.5525 10.5543 10.5599 10.5022 10.5563H10.1713V11.0383H9.97833ZM10.4812 9.95301H10.1713V10.3942H10.4868C10.5166 10.3955 10.5463 10.3908 10.5743 10.3803C10.6022 10.3698 10.6277 10.3538 10.6492 10.3332C10.6707 10.3126 10.6879 10.2878 10.6996 10.2604C10.7113 10.2329 10.7173 10.2034 10.7173 10.1736C10.7174 10.1433 10.7112 10.1133 10.6991 10.0855C10.6871 10.0576 10.6695 10.0326 10.6473 10.0119C10.6252 9.99121 10.599 9.9753 10.5704 9.96516C10.5419 9.95504 10.5115 9.95091 10.4812 9.95301Z" fill="#BABABA"/>
<path d="M11.5125 10.1108C11.7838 10.1108 11.9537 10.3226 11.9537 10.5994V10.6413H11.2379C11.2422 10.7192 11.2768 10.7922 11.3343 10.8448C11.3918 10.8974 11.4677 10.9253 11.5456 10.9226C11.6458 10.9219 11.7419 10.8824 11.8136 10.8123L11.8919 10.9226C11.7931 11.0137 11.6622 11.0621 11.5279 11.0571C11.4652 11.0595 11.4026 11.0488 11.3442 11.0257C11.2858 11.0025 11.2329 10.9675 11.1888 10.9228C11.1447 10.878 11.1104 10.8246 11.0881 10.7659C11.0658 10.7072 11.0559 10.6445 11.0592 10.5818C11.0571 10.5209 11.0673 10.4602 11.0891 10.4032C11.111 10.3463 11.144 10.2944 11.1863 10.2505C11.2285 10.2065 11.2792 10.1716 11.3352 10.1476C11.3913 10.1236 11.4515 10.1111 11.5125 10.1108ZM11.2346 10.5189H11.786C11.7865 10.4829 11.7797 10.4472 11.766 10.4139C11.7523 10.3807 11.732 10.3505 11.7063 10.3252C11.6807 10.3 11.6502 10.2802 11.6167 10.267C11.5832 10.2539 11.5474 10.2477 11.5114 10.2487C11.4384 10.249 11.3685 10.2779 11.3167 10.3293C11.2649 10.3807 11.2354 10.4504 11.2346 10.5233V10.5189Z" fill="#BABABA"/>
<path d="M12.7699 11.0383V10.9391C12.732 10.9791 12.6861 11.0106 12.6351 11.0315C12.5842 11.0524 12.5293 11.0623 12.4743 11.0604C12.4336 11.0623 12.393 11.056 12.3549 11.0418C12.3168 11.0276 12.2819 11.0058 12.2524 10.9778C12.223 10.9498 12.1995 10.916 12.1834 10.8787C12.1673 10.8413 12.1589 10.8011 12.1588 10.7604C12.1583 10.7197 12.1662 10.6793 12.1821 10.6419C12.198 10.6044 12.2215 10.5707 12.2512 10.5429C12.2809 10.515 12.3161 10.4937 12.3545 10.4803C12.3929 10.4668 12.4337 10.4615 12.4743 10.4648C12.5293 10.462 12.5843 10.4713 12.6354 10.4921C12.6865 10.5129 12.7324 10.5446 12.7699 10.585V10.435C12.7699 10.3247 12.6783 10.2541 12.5493 10.2541C12.498 10.2543 12.4474 10.2651 12.4005 10.2858C12.3536 10.3065 12.3115 10.3366 12.2768 10.3744L12.204 10.2585C12.2528 10.2101 12.3109 10.172 12.3748 10.1467C12.4387 10.1212 12.507 10.109 12.5758 10.1108C12.7721 10.1108 12.9386 10.1968 12.9386 10.4273V11.0383H12.7699ZM12.7699 10.6854C12.7416 10.6515 12.7059 10.6246 12.6655 10.6068C12.6252 10.589 12.5812 10.5808 12.5372 10.5828C12.5115 10.5799 12.4856 10.5823 12.4609 10.59C12.4363 10.5976 12.4135 10.6103 12.394 10.6272C12.3745 10.6441 12.3587 10.6648 12.3477 10.6881C12.3366 10.7114 12.3305 10.7368 12.3298 10.7626C12.3305 10.7884 12.3366 10.8137 12.3477 10.837C12.3587 10.8603 12.3745 10.8811 12.394 10.898C12.4135 10.9149 12.4363 10.9275 12.4609 10.9352C12.4856 10.9428 12.5115 10.9453 12.5372 10.9424C12.5812 10.9444 12.6252 10.9362 12.6655 10.9184C12.7059 10.9006 12.7416 10.8737 12.7699 10.8398V10.6854Z" fill="#BABABA"/>
<path d="M13.2596 11.0383V10.1328H13.4283V10.2717C13.4622 10.2244 13.5064 10.1853 13.5576 10.1576C13.6088 10.1299 13.6657 10.1142 13.7239 10.1118V10.2828C13.7045 10.2808 13.6849 10.2808 13.6655 10.2828C13.6182 10.2853 13.5722 10.2982 13.5306 10.3208C13.489 10.3433 13.4529 10.3748 13.425 10.4129V11.0427L13.2596 11.0383Z" fill="#BABABA"/>
<path d="M13.9379 10.7968C14.0188 10.8777 14.1279 10.9239 14.2423 10.9259C14.3691 10.9259 14.4375 10.8729 14.4375 10.7968C14.4375 10.7207 14.3338 10.6766 14.2169 10.6501C14.0625 10.6148 13.886 10.5729 13.886 10.3788C13.886 10.2343 14.0095 10.1108 14.2312 10.1108C14.3588 10.107 14.4827 10.1533 14.5765 10.2398L14.5014 10.3579C14.4671 10.3216 14.4254 10.293 14.3792 10.274C14.3331 10.255 14.2834 10.246 14.2334 10.2476C14.1232 10.2476 14.0471 10.2917 14.0471 10.3656C14.0471 10.4395 14.1452 10.4759 14.2577 10.4968C14.4143 10.5321 14.6018 10.5752 14.6018 10.7836C14.6018 10.9391 14.475 11.0604 14.2368 11.0604C14.1677 11.0635 14.0987 11.0527 14.0339 11.0287C13.9691 11.0046 13.9099 10.9678 13.8596 10.9204L13.9379 10.7968Z" fill="#BABABA"/>
<path d="M14.8036 10.585C14.8001 10.5232 14.8094 10.4613 14.831 10.4033C14.8525 10.3452 14.8858 10.2923 14.9288 10.2477C14.9718 10.2032 15.0235 10.1681 15.0808 10.1445C15.138 10.1209 15.1995 10.1094 15.2613 10.1107C15.3232 10.1094 15.3846 10.1209 15.4418 10.1445C15.499 10.1681 15.5507 10.2032 15.5935 10.2478C15.6364 10.2924 15.6696 10.3453 15.6911 10.4034C15.7125 10.4614 15.7216 10.5232 15.718 10.585C15.7218 10.6468 15.7127 10.7087 15.6914 10.7669C15.6701 10.8251 15.6369 10.8782 15.594 10.9228C15.5511 10.9675 15.4993 11.0028 15.4421 11.0265C15.3848 11.0501 15.3233 11.0616 15.2613 11.0603C15.1994 11.0615 15.1379 11.0498 15.0807 11.0261C15.0235 11.0024 14.9717 10.9672 14.9288 10.9225C14.8858 10.8779 14.8525 10.8249 14.831 10.7668C14.8095 10.7087 14.8002 10.6468 14.8036 10.585ZM15.5426 10.585C15.5469 10.5449 15.5428 10.5044 15.5308 10.466C15.5187 10.4276 15.4989 10.3921 15.4725 10.3617C15.4461 10.3312 15.4138 10.3066 15.3774 10.2892C15.3411 10.2718 15.3016 10.2621 15.2613 10.2607C15.2211 10.2621 15.1816 10.2718 15.1453 10.2892C15.109 10.3066 15.0766 10.3312 15.0502 10.3617C15.0238 10.3921 15.004 10.4276 14.9919 10.466C14.9799 10.5044 14.9758 10.5449 14.9801 10.585C14.9758 10.625 14.9799 10.6656 14.9919 10.7041C15.004 10.7425 15.0238 10.7781 15.0501 10.8086C15.0765 10.8391 15.1089 10.8639 15.1452 10.8814C15.1815 10.8989 15.2211 10.9087 15.2613 10.9103C15.3018 10.909 15.3415 10.8994 15.3781 10.882C15.4146 10.8647 15.4472 10.8399 15.4737 10.8094C15.5002 10.7788 15.5201 10.7431 15.5322 10.7045C15.5442 10.6659 15.5481 10.6252 15.5437 10.585H15.5426Z" fill="#BABABA"/>
<path d="M16.5915 11.0383V10.4593C16.5915 10.3093 16.5143 10.2607 16.3985 10.2607C16.3497 10.2622 16.3019 10.2748 16.2587 10.2976C16.2155 10.3203 16.1781 10.3526 16.1492 10.392V11.0383H15.9805V10.1328H16.1492V10.2607C16.1888 10.2144 16.2378 10.1771 16.2929 10.1512C16.3481 10.1253 16.4081 10.1115 16.4691 10.1108C16.5086 10.1057 16.5488 10.1098 16.5865 10.1227C16.6242 10.1356 16.6585 10.157 16.6866 10.1852C16.7147 10.2135 16.736 10.2478 16.7488 10.2856C16.7615 10.3233 16.7655 10.3635 16.7602 10.403V11.0383H16.5915Z" fill="#BABABA"/>
</g>
<defs>
<clipPath id="clip0_3626_361">
<rect width="24" height="12.1237" fill="white"/>
</clipPath>
</defs>
</svg>
